<svg width="560" height="800" viewBox="0 0 560 800" fill="none" xmlns="http://www.w3.org/2000/svg">
<path fill-rule="evenodd" clip-rule="evenodd" d="M280 680C280 680 80 400 80 280C80 169.72 169.72 80 280 80C390.28 80 480 169.72 480 280C480 400 280 680 280 680ZM280 0C125.36 0 0 125.36 0 280C0 434.64 280 800 280 800C280 800 560 434.64 560 280C560 125.36 434.64 0 280 0Z" fill="#777783"/>
<rect x="57" y="256.791" width="357.381" height="308.81" transform="rotate(-18.5321 57 256.791)" fill="#777783"/>
<rect x="160.029" y="552.234" width="168.344" height="183.303" transform="rotate(-40.3409 160.029 552.234)" fill="#777783"/>
<rect x="109.86" y="320.58" width="168.344" height="344.224" transform="rotate(-40.3409 109.86 320.58)" fill="#777783"/>
<rect x="27.7422" y="295.924" width="256.724" height="433.109" transform="rotate(-63.0371 27.7422 295.924)" fill="#777783"/>
<rect x="187.892" y="97.8996" width="97.9799" height="330.693" transform="rotate(-63.0371 187.892 97.8996)" fill="#777783"/>
<path d="M437 345.108V243.604C437 233.829 436.99 228.939 435.721 224.388C434.594 220.358 432.745 216.543 430.243 213.095C427.418 209.205 423.494 205.979 415.626 199.542L321.726 122.701C307.121 110.748 299.818 104.775 291.6 102.502C284.358 100.499 276.638 100.499 269.396 102.502C261.184 104.774 253.891 110.741 239.308 122.675L145.377 199.542C137.511 205.979 133.586 209.205 130.763 213.095C128.261 216.543 126.397 220.358 125.271 224.388C124 228.939 124 233.829 124 243.604V345.108C124 362.156 124 370.678 126.978 377.403C130.949 386.368 138.561 393.5 148.148 397.214C155.338 400 164.453 400 182.682 400C200.913 400 210.037 400 217.227 397.214C226.814 393.5 234.424 386.37 238.395 377.403C241.373 370.68 241.375 362.156 241.375 345.106V326.811C241.375 306.601 258.891 290.219 280.5 290.219C302.109 290.219 319.625 306.601 319.625 326.811V345.106C319.625 362.156 319.625 370.68 322.602 377.403C326.574 386.37 334.185 393.5 343.773 397.214C350.962 400 360.078 400 378.307 400C396.537 400 405.663 400 412.852 397.214C422.44 393.5 430.049 386.368 434.021 377.403C436.998 370.678 437 362.156 437 345.108Z" fill="#777783" stroke="white" stroke-width="48" stroke-linecap="round" stroke-linejoin="round"/>
</svg>
